<?xml version="1.0" encoding="UTF-8" ?>
<!DOCTYPE score-partwise PUBLIC '-//Recordare//DTD MusicXML 2.0 Partwise//EN' 'http://www.musicxml.org/dtds/2.0/partwise.dtd'>
<score-partwise version="2.0">
 <identification>
  <encoding>
   <encoding-date>2024-08-02</encoding-date>
   <software>Guitar Pro 8.1.3</software>
   <supports value="yes" type="yes" element="print" attribute="new-system"/>
  </encoding>
 </identification>
 <defaults>
  <scaling>
   <millimeters>6.4</millimeters>
   <tenths>40</tenths>
  </scaling>
  <page-layout>
   <page-height>1850</page-height>
   <page-width>1310</page-width>
  </page-layout>
 </defaults>
 <part-list>
  <score-part id="P1">
   <part-name>Guitar L1</part-name>
   <part-abbreviation>el.guit.</part-abbreviation>
   <midi-instrument id="P1">
    <midi-channel>1</midi-channel>
    <midi-bank>1</midi-bank>
    <midi-program>28</midi-program>
    <volume>80</volume>
    <pan>0</pan>
   </midi-instrument>
  </score-part>
 </part-list>
 <part id="P1">
  <measure number="1">
   <print new-system="yes"/>
   <attributes>
    <divisions>1</divisions>
    <key>
     <fifths>1</fifths>
     <mode>major</mode>
    </key>
    <time>
     <beats>4</beats>
     <beat-type>4</beat-type>
    </time>
    <clef number="1">
     <sign>TAB</sign>
     <line>5</line>
    </clef>
    <staff-details number="1">
     <staff-lines>6</staff-lines>
     <staff-tuning line="1">
      <tuning-step>E</tuning-step>
      <tuning-octave>2</tuning-octave>
     </staff-tuning>
     <staff-tuning line="2">
      <tuning-step>A</tuning-step>
      <tuning-octave>2</tuning-octave>
     </staff-tuning>
     <staff-tuning line="3">
      <tuning-step>D</tuning-step>
      <tuning-octave>3</tuning-octave>
     </staff-tuning>
     <staff-tuning line="4">
      <tuning-step>G</tuning-step>
      <tuning-octave>3</tuning-octave>
     </staff-tuning>
     <staff-tuning line="5">
      <tuning-step>B</tuning-step>
      <tuning-octave>3</tuning-octave>
     </staff-tuning>
     <staff-tuning line="6">
      <tuning-step>E</tuning-step>
      <tuning-octave>4</tuning-octave>
     </staff-tuning>
    </staff-details>
   </attributes>
   <direction directive="yes">
    <direction-type>
     <metronome parentheses="no" default-y="40">
      <beat-unit>quarter</beat-unit>
      <per-minute>96</per-minute>
     </metronome>
    </direction-type>
    <sound tempo="96"/>
   </direction>
   <note>
    <rest/>
    <duration>4</duration>
    <voice>1</voice>
    <type>whole</type>
   </note>
  </measure>
  <measure number="2">
   <note>
    <rest/>
    <duration>4</duration>
    <voice>1</voice>
    <type>whole</type>
   </note>
  </measure>
  <measure number="3">
   <note>
    <rest/>
    <duration>4</duration>
    <voice>1</voice>
    <type>whole</type>
   </note>
  </measure>
  <measure number="4">
   <print new-system="yes"/>
   <note>
    <rest/>
    <duration>4</duration>
    <voice>1</voice>
    <type>whole</type>
   </note>
  </measure>
  <measure number="5">
   <note>
    <rest/>
    <duration>4</duration>
    <voice>1</voice>
    <type>whole</type>
   </note>
  </measure>
  <measure number="6">
   <note>
    <rest/>
    <duration>4</duration>
    <voice>1</voice>
    <type>whole</type>
   </note>
  </measure>
  <measure number="7">
   <print new-system="yes"/>
   <note>
    <rest/>
    <duration>4</duration>
    <voice>1</voice>
    <type>whole</type>
   </note>
  </measure>
  <measure number="8">
   <note>
    <rest/>
    <duration>4</duration>
    <voice>1</voice>
    <type>whole</type>
   </note>
  </measure>
  <measure number="9">
   <note>
    <rest/>
    <duration>4</duration>
    <voice>1</voice>
    <type>whole</type>
   </note>
  </measure>
  <measure number="10">
   <print new-system="yes"/>
   <note>
    <rest/>
    <duration>4</duration>
    <voice>1</voice>
    <type>whole</type>
   </note>
  </measure>
  <measure number="11">
   <note>
    <rest/>
    <duration>4</duration>
    <voice>1</voice>
    <type>whole</type>
   </note>
  </measure>
  <measure number="12">
   <note>
    <rest/>
    <duration>4</duration>
    <voice>1</voice>
    <type>whole</type>
   </note>
  </measure>
  <measure number="13">
   <print new-system="yes"/>
   <note>
    <rest/>
    <duration>4</duration>
    <voice>1</voice>
    <type>whole</type>
   </note>
  </measure>
  <measure number="14">
   <note>
    <rest/>
    <duration>4</duration>
    <voice>1</voice>
    <type>whole</type>
   </note>
  </measure>
  <measure number="15">
   <note>
    <rest/>
    <duration>4</duration>
    <voice>1</voice>
    <type>whole</type>
   </note>
  </measure>
  <measure number="16">
   <print new-system="yes"/>
   <note>
    <rest/>
    <duration>4</duration>
    <voice>1</voice>
    <type>whole</type>
   </note>
  </measure>
  <measure number="17">
   <note>
    <rest/>
    <duration>4</duration>
    <voice>1</voice>
    <type>whole</type>
   </note>
  </measure>
  <measure number="18">
   <note>
    <rest/>
    <duration>4</duration>
    <voice>1</voice>
    <type>whole</type>
   </note>
  </measure>
  <measure number="19">
   <print new-system="yes"/>
   <note>
    <rest/>
    <duration>4</duration>
    <voice>1</voice>
    <type>whole</type>
   </note>
  </measure>
  <measure number="20">
   <note>
    <rest/>
    <duration>4</duration>
    <voice>1</voice>
    <type>whole</type>
   </note>
  </measure>
  <measure number="21">
   <note>
    <rest/>
    <duration>4</duration>
    <voice>1</voice>
    <type>whole</type>
   </note>
  </measure>
  <measure number="22">
   <print new-system="yes"/>
   <note>
    <rest/>
    <duration>4</duration>
    <voice>1</voice>
    <type>whole</type>
   </note>
  </measure>
  <measure number="23">
   <note>
    <rest/>
    <duration>4</duration>
    <voice>1</voice>
    <type>whole</type>
   </note>
  </measure>
  <measure number="24">
   <note>
    <rest/>
    <duration>4</duration>
    <voice>1</voice>
    <type>whole</type>
   </note>
  </measure>
  <measure number="25">
   <print new-system="yes"/>
   <note>
    <rest/>
    <duration>4</duration>
    <voice>1</voice>
    <type>whole</type>
   </note>
  </measure>
  <measure number="26">
   <note>
    <rest/>
    <duration>4</duration>
    <voice>1</voice>
    <type>whole</type>
   </note>
  </measure>
  <measure number="27">
   <note>
    <rest/>
    <duration>4</duration>
    <voice>1</voice>
    <type>whole</type>
   </note>
  </measure>
  <measure number="28">
   <print new-system="yes"/>
   <note>
    <rest/>
    <duration>4</duration>
    <voice>1</voice>
    <type>whole</type>
   </note>
  </measure>
  <measure number="29">
   <note>
    <rest/>
    <duration>4</duration>
    <voice>1</voice>
    <type>whole</type>
   </note>
  </measure>
  <measure number="30">
   <note>
    <rest/>
    <duration>4</duration>
    <voice>1</voice>
    <type>whole</type>
   </note>
  </measure>
  <measure number="31">
   <print new-system="yes"/>
   <note>
    <rest/>
    <duration>4</duration>
    <voice>1</voice>
    <type>whole</type>
   </note>
  </measure>
  <measure number="32">
   <note>
    <rest/>
    <duration>4</duration>
    <voice>1</voice>
    <type>whole</type>
   </note>
  </measure>
  <measure number="33">
   <note>
    <rest/>
    <duration>4</duration>
    <voice>1</voice>
    <type>whole</type>
   </note>
  </measure>
  <measure number="34">
   <print new-system="yes"/>
   <note>
    <rest/>
    <duration>4</duration>
    <voice>1</voice>
    <type>whole</type>
   </note>
  </measure>
  <measure number="35">
   <note>
    <rest/>
    <duration>4</duration>
    <voice>1</voice>
    <type>whole</type>
   </note>
  </measure>
  <measure number="36">
   <note>
    <rest/>
    <duration>4</duration>
    <voice>1</voice>
    <type>whole</type>
   </note>
  </measure>
  <measure number="37">
   <print new-system="yes"/>
   <note>
    <rest/>
    <duration>4</duration>
    <voice>1</voice>
    <type>whole</type>
   </note>
  </measure>
  <measure number="38">
   <note>
    <rest/>
    <duration>4</duration>
    <voice>1</voice>
    <type>whole</type>
   </note>
  </measure>
  <measure number="39">
   <note>
    <rest/>
    <duration>4</duration>
    <voice>1</voice>
    <type>whole</type>
   </note>
  </measure>
  <measure number="40">
   <print new-system="yes"/>
   <note>
    <rest/>
    <duration>4</duration>
    <voice>1</voice>
    <type>whole</type>
   </note>
  </measure>
  <measure number="41">
   <note>
    <rest/>
    <duration>4</duration>
    <voice>1</voice>
    <type>whole</type>
   </note>
  </measure>
  <measure number="42">
   <note>
    <rest/>
    <duration>4</duration>
    <voice>1</voice>
    <type>whole</type>
   </note>
  </measure>
  <measure number="43">
   <print new-system="yes"/>
   <note>
    <rest/>
    <duration>4</duration>
    <voice>1</voice>
    <type>whole</type>
   </note>
  </measure>
  <measure number="44">
   <note>
    <rest/>
    <duration>4</duration>
    <voice>1</voice>
    <type>whole</type>
   </note>
  </measure>
  <measure number="45">
   <note>
    <rest/>
    <duration>4</duration>
    <voice>1</voice>
    <type>whole</type>
   </note>
  </measure>
  <measure number="46">
   <print new-system="yes"/>
   <note>
    <rest/>
    <duration>4</duration>
    <voice>1</voice>
    <type>whole</type>
   </note>
  </measure>
  <measure number="47">
   <note>
    <rest/>
    <duration>4</duration>
    <voice>1</voice>
    <type>whole</type>
   </note>
  </measure>
  <measure number="48">
   <note>
    <rest/>
    <duration>4</duration>
    <voice>1</voice>
    <type>whole</type>
   </note>
  </measure>
  <measure number="49">
   <print new-system="yes"/>
   <note>
    <rest/>
    <duration>4</duration>
    <voice>1</voice>
    <type>whole</type>
   </note>
  </measure>
  <measure number="50">
   <harmony>
    <root>
     <root-step>G</root-step>
     <root-alter>0</root-alter>
    </root>
    <kind>power</kind>
    <frame>
     <frame-strings>6</frame-strings>
     <frame-frets>5</frame-frets>
     <first-fret>1</first-fret>
     <frame-note>
      <string>6</string>
      <fret>3</fret>
     </frame-note>
     <frame-note>
      <string>5</string>
      <fret>5</fret>
     </frame-note>
    </frame>
   </harmony>
   <direction>
    <direction-type>
     <dynamics>
      <mf/>
     </dynamics>
    </direction-type>
   </direction>
   <direction>
    <direction-type>
     <rehearsal>Chorus</rehearsal>
    </direction-type>
   </direction>
   <note>
    <pitch>
     <step>G</step>
     <octave>2</octave>
    </pitch>
    <duration>4</duration>
    <voice>1</voice>
    <type>whole</type>
    <stem>up</stem>
    <notations>
     <technical>
      <fingering>1</fingering>
      <string>6</string>
      <fret>3</fret>
     </technical>
    </notations>
   </note>
   <note>
    <chord/>
    <pitch>
     <step>D</step>
     <octave>3</octave>
    </pitch>
    <duration>4</duration>
    <voice>1</voice>
    <type>whole</type>
    <stem>up</stem>
    <notations>
     <technical>
      <fingering>3</fingering>
      <string>5</string>
      <fret>5</fret>
     </technical>
    </notations>
   </note>
  </measure>
  <measure number="51">
   <direction>
    <direction-type>
     <dynamics>
      <mf/>
     </dynamics>
    </direction-type>
   </direction>
   <note>
    <pitch>
     <step>G</step>
     <octave>2</octave>
    </pitch>
    <duration>4</duration>
    <voice>1</voice>
    <type>whole</type>
    <stem>up</stem>
    <notations>
     <technical>
      <fingering>1</fingering>
      <string>6</string>
      <fret>3</fret>
     </technical>
    </notations>
   </note>
   <note>
    <chord/>
    <pitch>
     <step>D</step>
     <octave>3</octave>
    </pitch>
    <duration>4</duration>
    <voice>1</voice>
    <type>whole</type>
    <stem>up</stem>
    <notations>
     <technical>
      <fingering>3</fingering>
      <string>5</string>
      <fret>5</fret>
     </technical>
    </notations>
   </note>
  </measure>
  <measure number="52">
   <print new-system="yes"/>
   <harmony>
    <root>
     <root-step>B</root-step>
     <root-alter>0</root-alter>
    </root>
    <kind>power</kind>
    <frame>
     <frame-strings>6</frame-strings>
     <frame-frets>5</frame-frets>
     <first-fret>1</first-fret>
     <frame-note>
      <string>5</string>
      <fret>2</fret>
     </frame-note>
     <frame-note>
      <string>4</string>
      <fret>4</fret>
     </frame-note>
    </frame>
   </harmony>
   <direction>
    <direction-type>
     <dynamics>
      <mf/>
     </dynamics>
    </direction-type>
   </direction>
   <note>
    <pitch>
     <step>B</step>
     <octave>2</octave>
    </pitch>
    <duration>4</duration>
    <voice>1</voice>
    <type>whole</type>
    <stem>up</stem>
    <notations>
     <technical>
      <fingering>1</fingering>
      <string>5</string>
      <fret>2</fret>
     </technical>
    </notations>
   </note>
   <note>
    <chord/>
    <pitch>
     <step>F</step>
     <alter>1</alter>
     <octave>3</octave>
    </pitch>
    <duration>4</duration>
    <voice>1</voice>
    <type>whole</type>
    <stem>up</stem>
    <notations>
     <technical>
      <fingering>3</fingering>
      <string>4</string>
      <fret>4</fret>
     </technical>
    </notations>
   </note>
  </measure>
  <measure number="53">
   <direction>
    <direction-type>
     <dynamics>
      <mf/>
     </dynamics>
    </direction-type>
   </direction>
   <note>
    <pitch>
     <step>B</step>
     <octave>2</octave>
    </pitch>
    <duration>4</duration>
    <voice>1</voice>
    <type>whole</type>
    <stem>up</stem>
    <notations>
     <technical>
      <fingering>1</fingering>
      <string>5</string>
      <fret>2</fret>
     </technical>
    </notations>
   </note>
   <note>
    <chord/>
    <pitch>
     <step>F</step>
     <alter>1</alter>
     <octave>3</octave>
    </pitch>
    <duration>4</duration>
    <voice>1</voice>
    <type>whole</type>
    <stem>up</stem>
    <notations>
     <technical>
      <fingering>3</fingering>
      <string>4</string>
      <fret>4</fret>
     </technical>
    </notations>
   </note>
  </measure>
  <measure number="54">
   <harmony>
    <root>
     <root-step>C</root-step>
     <root-alter>0</root-alter>
    </root>
    <kind>power</kind>
    <frame>
     <frame-strings>6</frame-strings>
     <frame-frets>5</frame-frets>
     <first-fret>1</first-fret>
     <frame-note>
      <string>5</string>
      <fret>3</fret>
     </frame-note>
     <frame-note>
      <string>4</string>
      <fret>5</fret>
     </frame-note>
    </frame>
   </harmony>
   <direction>
    <direction-type>
     <dynamics>
      <mf/>
     </dynamics>
    </direction-type>
   </direction>
   <note>
    <pitch>
     <step>C</step>
     <octave>3</octave>
    </pitch>
    <duration>4</duration>
    <voice>1</voice>
    <type>whole</type>
    <stem>up</stem>
    <notations>
     <technical>
      <fingering>1</fingering>
      <string>5</string>
      <fret>3</fret>
     </technical>
    </notations>
   </note>
   <note>
    <chord/>
    <pitch>
     <step>G</step>
     <octave>3</octave>
    </pitch>
    <duration>4</duration>
    <voice>1</voice>
    <type>whole</type>
    <stem>up</stem>
    <notations>
     <technical>
      <fingering>3</fingering>
      <string>4</string>
      <fret>5</fret>
     </technical>
    </notations>
   </note>
  </measure>
  <measure number="55">
   <print new-system="yes"/>
   <direction>
    <direction-type>
     <dynamics>
      <mf/>
     </dynamics>
    </direction-type>
   </direction>
   <note>
    <pitch>
     <step>C</step>
     <octave>3</octave>
    </pitch>
    <duration>4</duration>
    <voice>1</voice>
    <type>whole</type>
    <stem>up</stem>
    <notations>
     <technical>
      <fingering>1</fingering>
      <string>5</string>
      <fret>3</fret>
     </technical>
    </notations>
   </note>
   <note>
    <chord/>
    <pitch>
     <step>G</step>
     <octave>3</octave>
    </pitch>
    <duration>4</duration>
    <voice>1</voice>
    <type>whole</type>
    <stem>up</stem>
    <notations>
     <technical>
      <fingering>3</fingering>
      <string>4</string>
      <fret>5</fret>
     </technical>
    </notations>
   </note>
  </measure>
  <measure number="56">
   <direction>
    <direction-type>
     <dynamics>
      <mf/>
     </dynamics>
    </direction-type>
   </direction>
   <note>
    <pitch>
     <step>C</step>
     <octave>3</octave>
    </pitch>
    <duration>4</duration>
    <voice>1</voice>
    <type>whole</type>
    <stem>up</stem>
    <notations>
     <technical>
      <fingering>1</fingering>
      <string>5</string>
      <fret>3</fret>
     </technical>
    </notations>
   </note>
   <note>
    <chord/>
    <pitch>
     <step>G</step>
     <octave>3</octave>
    </pitch>
    <duration>4</duration>
    <voice>1</voice>
    <type>whole</type>
    <stem>up</stem>
    <notations>
     <technical>
      <fingering>3</fingering>
      <string>4</string>
      <fret>5</fret>
     </technical>
    </notations>
   </note>
  </measure>
  <measure number="57">
   <direction>
    <direction-type>
     <dynamics>
      <mf/>
     </dynamics>
    </direction-type>
   </direction>
   <note>
    <pitch>
     <step>C</step>
     <octave>3</octave>
    </pitch>
    <duration>4</duration>
    <voice>1</voice>
    <type>whole</type>
    <stem>up</stem>
    <notations>
     <technical>
      <fingering>1</fingering>
      <string>5</string>
      <fret>3</fret>
     </technical>
    </notations>
   </note>
   <note>
    <chord/>
    <pitch>
     <step>G</step>
     <octave>3</octave>
    </pitch>
    <duration>4</duration>
    <voice>1</voice>
    <type>whole</type>
    <stem>up</stem>
    <notations>
     <technical>
      <fingering>3</fingering>
      <string>4</string>
      <fret>5</fret>
     </technical>
    </notations>
   </note>
  </measure>
  <measure number="58">
   <print new-system="yes"/>
   <harmony>
    <root>
     <root-step>G</root-step>
     <root-alter>0</root-alter>
    </root>
    <kind>power</kind>
    <frame>
     <frame-strings>6</frame-strings>
     <frame-frets>5</frame-frets>
     <first-fret>1</first-fret>
     <frame-note>
      <string>6</string>
      <fret>3</fret>
     </frame-note>
     <frame-note>
      <string>5</string>
      <fret>5</fret>
     </frame-note>
    </frame>
   </harmony>
   <direction>
    <direction-type>
     <dynamics>
      <mf/>
     </dynamics>
    </direction-type>
   </direction>
   <direction>
    <direction-type>
     <rehearsal>Bridge</rehearsal>
    </direction-type>
   </direction>
   <note>
    <pitch>
     <step>G</step>
     <octave>2</octave>
    </pitch>
    <duration>4</duration>
    <voice>1</voice>
    <type>whole</type>
    <stem>up</stem>
    <notations>
     <technical>
      <fingering>1</fingering>
      <string>6</string>
      <fret>3</fret>
     </technical>
    </notations>
   </note>
   <note>
    <chord/>
    <pitch>
     <step>D</step>
     <octave>3</octave>
    </pitch>
    <duration>4</duration>
    <voice>1</voice>
    <type>whole</type>
    <stem>up</stem>
    <notations>
     <technical>
      <fingering>3</fingering>
      <string>5</string>
      <fret>5</fret>
     </technical>
    </notations>
   </note>
  </measure>
  <measure number="59">
   <direction>
    <direction-type>
     <dynamics>
      <mf/>
     </dynamics>
    </direction-type>
   </direction>
   <note>
    <pitch>
     <step>G</step>
     <octave>2</octave>
    </pitch>
    <duration>4</duration>
    <voice>1</voice>
    <type>whole</type>
    <stem>up</stem>
    <notations>
     <technical>
      <fingering>1</fingering>
      <string>6</string>
      <fret>3</fret>
     </technical>
    </notations>
   </note>
   <note>
    <chord/>
    <pitch>
     <step>D</step>
     <octave>3</octave>
    </pitch>
    <duration>4</duration>
    <voice>1</voice>
    <type>whole</type>
    <stem>up</stem>
    <notations>
     <technical>
      <fingering>3</fingering>
      <string>5</string>
      <fret>5</fret>
     </technical>
    </notations>
   </note>
  </measure>
  <measure number="60">
   <harmony>
    <root>
     <root-step>B</root-step>
     <root-alter>0</root-alter>
    </root>
    <kind>power</kind>
    <frame>
     <frame-strings>6</frame-strings>
     <frame-frets>5</frame-frets>
     <first-fret>1</first-fret>
     <frame-note>
      <string>5</string>
      <fret>2</fret>
     </frame-note>
     <frame-note>
      <string>4</string>
      <fret>4</fret>
     </frame-note>
    </frame>
   </harmony>
   <direction>
    <direction-type>
     <dynamics>
      <mf/>
     </dynamics>
    </direction-type>
   </direction>
   <note>
    <pitch>
     <step>B</step>
     <octave>2</octave>
    </pitch>
    <duration>4</duration>
    <voice>1</voice>
    <type>whole</type>
    <stem>up</stem>
    <notations>
     <technical>
      <fingering>1</fingering>
      <string>5</string>
      <fret>2</fret>
     </technical>
    </notations>
   </note>
   <note>
    <chord/>
    <pitch>
     <step>F</step>
     <alter>1</alter>
     <octave>3</octave>
    </pitch>
    <duration>4</duration>
    <voice>1</voice>
    <type>whole</type>
    <stem>up</stem>
    <notations>
     <technical>
      <fingering>3</fingering>
      <string>4</string>
      <fret>4</fret>
     </technical>
    </notations>
   </note>
  </measure>
  <measure number="61">
   <print new-system="yes"/>
   <direction>
    <direction-type>
     <dynamics>
      <mf/>
     </dynamics>
    </direction-type>
   </direction>
   <note>
    <pitch>
     <step>B</step>
     <octave>2</octave>
    </pitch>
    <duration>4</duration>
    <voice>1</voice>
    <type>whole</type>
    <stem>up</stem>
    <notations>
     <technical>
      <fingering>1</fingering>
      <string>5</string>
      <fret>2</fret>
     </technical>
    </notations>
   </note>
   <note>
    <chord/>
    <pitch>
     <step>F</step>
     <alter>1</alter>
     <octave>3</octave>
    </pitch>
    <duration>4</duration>
    <voice>1</voice>
    <type>whole</type>
    <stem>up</stem>
    <notations>
     <technical>
      <fingering>3</fingering>
      <string>4</string>
      <fret>4</fret>
     </technical>
    </notations>
   </note>
  </measure>
  <measure number="62">
   <harmony>
    <root>
     <root-step>C</root-step>
     <root-alter>0</root-alter>
    </root>
    <kind>power</kind>
    <frame>
     <frame-strings>6</frame-strings>
     <frame-frets>5</frame-frets>
     <first-fret>1</first-fret>
     <frame-note>
      <string>5</string>
      <fret>3</fret>
     </frame-note>
     <frame-note>
      <string>4</string>
      <fret>5</fret>
     </frame-note>
    </frame>
   </harmony>
   <direction>
    <direction-type>
     <dynamics>
      <mf/>
     </dynamics>
    </direction-type>
   </direction>
   <note>
    <pitch>
     <step>C</step>
     <octave>3</octave>
    </pitch>
    <duration>4</duration>
    <voice>1</voice>
    <type>whole</type>
    <stem>up</stem>
    <notations>
     <technical>
      <fingering>1</fingering>
      <string>5</string>
      <fret>3</fret>
     </technical>
    </notations>
   </note>
   <note>
    <chord/>
    <pitch>
     <step>G</step>
     <octave>3</octave>
    </pitch>
    <duration>4</duration>
    <voice>1</voice>
    <type>whole</type>
    <stem>up</stem>
    <notations>
     <technical>
      <fingering>3</fingering>
      <string>4</string>
      <fret>5</fret>
     </technical>
    </notations>
   </note>
  </measure>
  <measure number="63">
   <direction>
    <direction-type>
     <dynamics>
      <mf/>
     </dynamics>
    </direction-type>
   </direction>
   <note>
    <pitch>
     <step>C</step>
     <octave>3</octave>
    </pitch>
    <duration>4</duration>
    <voice>1</voice>
    <type>whole</type>
    <stem>up</stem>
    <notations>
     <technical>
      <fingering>1</fingering>
      <string>5</string>
      <fret>3</fret>
     </technical>
    </notations>
   </note>
   <note>
    <chord/>
    <pitch>
     <step>G</step>
     <octave>3</octave>
    </pitch>
    <duration>4</duration>
    <voice>1</voice>
    <type>whole</type>
    <stem>up</stem>
    <notations>
     <technical>
      <fingering>3</fingering>
      <string>4</string>
      <fret>5</fret>
     </technical>
    </notations>
   </note>
  </measure>
  <measure number="64">
   <print new-system="yes"/>
   <direction>
    <direction-type>
     <dynamics>
      <mf/>
     </dynamics>
    </direction-type>
   </direction>
   <note>
    <pitch>
     <step>C</step>
     <octave>3</octave>
    </pitch>
    <duration>4</duration>
    <voice>1</voice>
    <type>whole</type>
    <stem>up</stem>
    <notations>
     <technical>
      <fingering>1</fingering>
      <string>5</string>
      <fret>3</fret>
     </technical>
    </notations>
   </note>
   <note>
    <chord/>
    <pitch>
     <step>G</step>
     <octave>3</octave>
    </pitch>
    <duration>4</duration>
    <voice>1</voice>
    <type>whole</type>
    <stem>up</stem>
    <notations>
     <technical>
      <fingering>3</fingering>
      <string>4</string>
      <fret>5</fret>
     </technical>
    </notations>
   </note>
  </measure>
  <measure number="65">
   <direction>
    <direction-type>
     <dynamics>
      <mf/>
     </dynamics>
    </direction-type>
   </direction>
   <note>
    <pitch>
     <step>C</step>
     <octave>3</octave>
    </pitch>
    <duration>4</duration>
    <voice>1</voice>
    <type>whole</type>
    <stem>up</stem>
    <notations>
     <technical>
      <fingering>1</fingering>
      <string>5</string>
      <fret>3</fret>
     </technical>
    </notations>
   </note>
   <note>
    <chord/>
    <pitch>
     <step>G</step>
     <octave>3</octave>
    </pitch>
    <duration>4</duration>
    <voice>1</voice>
    <type>whole</type>
    <stem>up</stem>
    <notations>
     <technical>
      <fingering>3</fingering>
      <string>4</string>
      <fret>5</fret>
     </technical>
    </notations>
   </note>
  </measure>
  <measure number="66">
   <harmony>
    <root>
     <root-step>G</root-step>
     <root-alter>0</root-alter>
    </root>
    <kind>power</kind>
    <frame>
     <frame-strings>6</frame-strings>
     <frame-frets>5</frame-frets>
     <first-fret>1</first-fret>
     <frame-note>
      <string>6</string>
      <fret>3</fret>
     </frame-note>
     <frame-note>
      <string>5</string>
      <fret>5</fret>
     </frame-note>
    </frame>
   </harmony>
   <direction>
    <direction-type>
     <dynamics>
      <mf/>
     </dynamics>
    </direction-type>
   </direction>
   <note>
    <pitch>
     <step>G</step>
     <octave>2</octave>
    </pitch>
    <duration>4</duration>
    <voice>1</voice>
    <type>whole</type>
    <stem>up</stem>
    <notations>
     <technical>
      <fingering>1</fingering>
      <string>6</string>
      <fret>3</fret>
     </technical>
    </notations>
   </note>
   <note>
    <chord/>
    <pitch>
     <step>D</step>
     <octave>3</octave>
    </pitch>
    <duration>4</duration>
    <voice>1</voice>
    <type>whole</type>
    <stem>up</stem>
    <notations>
     <technical>
      <fingering>3</fingering>
      <string>5</string>
      <fret>5</fret>
     </technical>
    </notations>
   </note>
  </measure>
  <measure number="67">
   <print new-system="yes"/>
   <direction>
    <direction-type>
     <dynamics>
      <mf/>
     </dynamics>
    </direction-type>
   </direction>
   <note>
    <pitch>
     <step>G</step>
     <octave>2</octave>
    </pitch>
    <duration>4</duration>
    <voice>1</voice>
    <type>whole</type>
    <stem>up</stem>
    <notations>
     <technical>
      <fingering>1</fingering>
      <string>6</string>
      <fret>3</fret>
     </technical>
    </notations>
   </note>
   <note>
    <chord/>
    <pitch>
     <step>D</step>
     <octave>3</octave>
    </pitch>
    <duration>4</duration>
    <voice>1</voice>
    <type>whole</type>
    <stem>up</stem>
    <notations>
     <technical>
      <fingering>3</fingering>
      <string>5</string>
      <fret>5</fret>
     </technical>
    </notations>
   </note>
  </measure>
  <measure number="68">
   <harmony>
    <root>
     <root-step>B</root-step>
     <root-alter>0</root-alter>
    </root>
    <kind>power</kind>
    <frame>
     <frame-strings>6</frame-strings>
     <frame-frets>5</frame-frets>
     <first-fret>1</first-fret>
     <frame-note>
      <string>5</string>
      <fret>2</fret>
     </frame-note>
     <frame-note>
      <string>4</string>
      <fret>4</fret>
     </frame-note>
    </frame>
   </harmony>
   <direction>
    <direction-type>
     <dynamics>
      <mf/>
     </dynamics>
    </direction-type>
   </direction>
   <note>
    <pitch>
     <step>B</step>
     <octave>2</octave>
    </pitch>
    <duration>4</duration>
    <voice>1</voice>
    <type>whole</type>
    <stem>up</stem>
    <notations>
     <technical>
      <fingering>1</fingering>
      <string>5</string>
      <fret>2</fret>
     </technical>
    </notations>
   </note>
   <note>
    <chord/>
    <pitch>
     <step>F</step>
     <alter>1</alter>
     <octave>3</octave>
    </pitch>
    <duration>4</duration>
    <voice>1</voice>
    <type>whole</type>
    <stem>up</stem>
    <notations>
     <technical>
      <fingering>3</fingering>
      <string>4</string>
      <fret>4</fret>
     </technical>
    </notations>
   </note>
  </measure>
  <measure number="69">
   <direction>
    <direction-type>
     <dynamics>
      <mf/>
     </dynamics>
    </direction-type>
   </direction>
   <note>
    <pitch>
     <step>B</step>
     <octave>2</octave>
    </pitch>
    <duration>4</duration>
    <voice>1</voice>
    <type>whole</type>
    <stem>up</stem>
    <notations>
     <technical>
      <fingering>1</fingering>
      <string>5</string>
      <fret>2</fret>
     </technical>
    </notations>
   </note>
   <note>
    <chord/>
    <pitch>
     <step>F</step>
     <alter>1</alter>
     <octave>3</octave>
    </pitch>
    <duration>4</duration>
    <voice>1</voice>
    <type>whole</type>
    <stem>up</stem>
    <notations>
     <technical>
      <fingering>3</fingering>
      <string>4</string>
      <fret>4</fret>
     </technical>
    </notations>
   </note>
  </measure>
  <measure number="70">
   <print new-system="yes"/>
   <harmony>
    <root>
     <root-step>C</root-step>
     <root-alter>0</root-alter>
    </root>
    <kind>power</kind>
    <frame>
     <frame-strings>6</frame-strings>
     <frame-frets>5</frame-frets>
     <first-fret>1</first-fret>
     <frame-note>
      <string>5</string>
      <fret>3</fret>
     </frame-note>
     <frame-note>
      <string>4</string>
      <fret>5</fret>
     </frame-note>
    </frame>
   </harmony>
   <direction>
    <direction-type>
     <dynamics>
      <mf/>
     </dynamics>
    </direction-type>
   </direction>
   <note>
    <pitch>
     <step>C</step>
     <octave>3</octave>
    </pitch>
    <duration>4</duration>
    <voice>1</voice>
    <type>whole</type>
    <stem>up</stem>
    <notations>
     <technical>
      <fingering>1</fingering>
      <string>5</string>
      <fret>3</fret>
     </technical>
    </notations>
   </note>
   <note>
    <chord/>
    <pitch>
     <step>G</step>
     <octave>3</octave>
    </pitch>
    <duration>4</duration>
    <voice>1</voice>
    <type>whole</type>
    <stem>up</stem>
    <notations>
     <technical>
      <fingering>3</fingering>
      <string>4</string>
      <fret>5</fret>
     </technical>
    </notations>
   </note>
  </measure>
  <measure number="71">
   <direction>
    <direction-type>
     <dynamics>
      <mf/>
     </dynamics>
    </direction-type>
   </direction>
   <note>
    <pitch>
     <step>C</step>
     <octave>3</octave>
    </pitch>
    <duration>4</duration>
    <voice>1</voice>
    <type>whole</type>
    <stem>up</stem>
    <notations>
     <technical>
      <fingering>1</fingering>
      <string>5</string>
      <fret>3</fret>
     </technical>
    </notations>
   </note>
   <note>
    <chord/>
    <pitch>
     <step>G</step>
     <octave>3</octave>
    </pitch>
    <duration>4</duration>
    <voice>1</voice>
    <type>whole</type>
    <stem>up</stem>
    <notations>
     <technical>
      <fingering>3</fingering>
      <string>4</string>
      <fret>5</fret>
     </technical>
    </notations>
   </note>
  </measure>
  <measure number="72">
   <direction>
    <direction-type>
     <dynamics>
      <mf/>
     </dynamics>
    </direction-type>
   </direction>
   <note>
    <pitch>
     <step>C</step>
     <octave>3</octave>
    </pitch>
    <duration>4</duration>
    <voice>1</voice>
    <type>whole</type>
    <stem>up</stem>
    <notations>
     <technical>
      <fingering>1</fingering>
      <string>5</string>
      <fret>3</fret>
     </technical>
    </notations>
   </note>
   <note>
    <chord/>
    <pitch>
     <step>G</step>
     <octave>3</octave>
    </pitch>
    <duration>4</duration>
    <voice>1</voice>
    <type>whole</type>
    <stem>up</stem>
    <notations>
     <technical>
      <fingering>3</fingering>
      <string>4</string>
      <fret>5</fret>
     </technical>
    </notations>
   </note>
  </measure>
  <measure number="73">
   <print new-system="yes"/>
   <direction>
    <direction-type>
     <dynamics>
      <mf/>
     </dynamics>
    </direction-type>
   </direction>
   <note>
    <pitch>
     <step>C</step>
     <octave>3</octave>
    </pitch>
    <duration>4</duration>
    <voice>1</voice>
    <type>whole</type>
    <stem>up</stem>
    <notations>
     <technical>
      <fingering>1</fingering>
      <string>5</string>
      <fret>3</fret>
     </technical>
    </notations>
   </note>
   <note>
    <chord/>
    <pitch>
     <step>G</step>
     <octave>3</octave>
    </pitch>
    <duration>4</duration>
    <voice>1</voice>
    <type>whole</type>
    <stem>up</stem>
    <notations>
     <technical>
      <fingering>3</fingering>
      <string>4</string>
      <fret>5</fret>
     </technical>
    </notations>
   </note>
  </measure>
  <measure number="74">
   <direction>
    <direction-type>
     <rehearsal>End</rehearsal>
    </direction-type>
   </direction>
   <note>
    <rest/>
    <duration>4</duration>
    <voice>1</voice>
    <type>whole</type>
   </note>
  </measure>
  <measure number="75">
   <note>
    <rest/>
    <duration>4</duration>
    <voice>1</voice>
    <type>whole</type>
   </note>
  </measure>
  <measure number="76">
   <print new-system="yes"/>
   <note>
    <rest/>
    <duration>4</duration>
    <voice>1</voice>
    <type>whole</type>
   </note>
  </measure>
  <measure number="77">
   <note>
    <rest/>
    <duration>4</duration>
    <voice>1</voice>
    <type>whole</type>
   </note>
  </measure>
  <measure number="78">
   <note>
    <rest/>
    <duration>4</duration>
    <voice>1</voice>
    <type>whole</type>
   </note>
  </measure>
  <measure number="79">
   <print new-system="yes"/>
   <note>
    <rest/>
    <duration>4</duration>
    <voice>1</voice>
    <type>whole</type>
   </note>
  </measure>
  <measure number="80">
   <note>
    <rest/>
    <duration>4</duration>
    <voice>1</voice>
    <type>whole</type>
   </note>
  </measure>
  <measure number="81">
   <note>
    <rest/>
    <duration>4</duration>
    <voice>1</voice>
    <type>whole</type>
   </note>
  </measure>
  <measure number="82">
   <print new-system="yes"/>
   <note>
    <rest/>
    <duration>4</duration>
    <voice>1</voice>
    <type>whole</type>
   </note>
  </measure>
  <measure number="83">
   <note>
    <rest/>
    <duration>4</duration>
    <voice>1</voice>
    <type>whole</type>
   </note>
  </measure>
  <measure number="84">
   <note>
    <rest/>
    <duration>4</duration>
    <voice>1</voice>
    <type>whole</type>
   </note>
  </measure>
  <measure number="85">
   <print new-system="yes"/>
   <note>
    <rest/>
    <duration>4</duration>
    <voice>1</voice>
    <type>whole</type>
   </note>
  </measure>
  <measure number="86">
   <note>
    <rest/>
    <duration>4</duration>
    <voice>1</voice>
    <type>whole</type>
   </note>
  </measure>
  <measure number="87">
   <note>
    <rest/>
    <duration>4</duration>
    <voice>1</voice>
    <type>whole</type>
   </note>
  </measure>
  <measure number="88">
   <print new-system="yes"/>
   <note>
    <rest/>
    <duration>4</duration>
    <voice>1</voice>
    <type>whole</type>
   </note>
  </measure>
  <measure number="89">
   <note>
    <rest/>
    <duration>4</duration>
    <voice>1</voice>
    <type>whole</type>
   </note>
  </measure>
  <measure number="90">
   <note>
    <rest/>
    <duration>4</duration>
    <voice>1</voice>
    <type>whole</type>
   </note>
  </measure>
  <measure number="91">
   <print new-system="yes"/>
   <note>
    <rest/>
    <duration>4</duration>
    <voice>1</voice>
    <type>whole</type>
   </note>
  </measure>
  <measure number="92">
   <note>
    <rest/>
    <duration>4</duration>
    <voice>1</voice>
    <type>whole</type>
   </note>
  </measure>
 </part>
</score-partwise>
